<svg width="153" height="32" viewBox="0 0 153 32" fill="none" xmlns="http://www.w3.org/2000/svg">
<path fill-rule="evenodd" clip-rule="evenodd" d="M123.835 14.3797L123.804 2.83544H149.861V8.70886L137.608 22.9873L132.949 18.7342L137.81 13.5696L135.785 11.6456L128.696 19.3418L137.608 27.1392L153 9.92405V0H121V17.4177L123.835 14.3797ZM149.861 15.8987V29.1646L123.937 29.1646L123.937 21.9747L135.785 9.41772L139.835 13.2658L135.481 18.3291L137.608 20.2532L143.886 13.0633L135.785 5.26582L121 20.3544V32L153 32V12.557L149.861 15.8987Z" fill="#8B24D0"/>
<path d="M15.5909 18.34C15.7243 18.34 15.7909 18.8 15.7909 19.72C15.7909 20.5733 15.7243 21 15.5909 21H13.8309C13.9243 21.1067 13.9709 21.3133 13.9709 21.62C13.9709 22.4333 13.7376 23.1533 13.2709 23.78C12.8043 24.4067 12.1576 24.8933 11.3309 25.24C10.5043 25.6 9.55094 25.78 8.47094 25.78H6.97094C5.2376 25.78 3.8976 25.28 2.95094 24.28C2.0176 23.2933 1.55094 21.9067 1.55094 20.12V16.12H4.09094V20.06C4.09094 21.0733 4.32427 21.8333 4.79094 22.34C5.2576 22.86 5.98427 23.12 6.97094 23.12H8.51094C10.4576 23.12 11.4309 22.62 11.4309 21.62C11.4309 21.34 11.3576 21.14 11.2109 21.02C11.0643 20.9133 10.8243 20.86 10.4909 20.86H6.99094L7.23094 18.34H15.5909ZM16.102 18.34C16.4754 18.34 16.7354 18.2667 16.882 18.12C17.042 17.9733 17.122 17.7333 17.122 17.4V16.84C17.122 15.5467 17.4887 14.5267 18.222 13.78C18.9687 13.02 19.9754 12.64 21.242 12.64C22.5087 12.64 23.4754 13.0067 24.142 13.74C24.822 14.46 25.162 15.5 25.162 16.86V17.22C25.162 17.62 25.2487 17.9067 25.422 18.08C25.5954 18.2533 25.8554 18.34 26.202 18.34H26.722C26.8554 18.34 26.922 18.8 26.922 19.72C26.922 20.5733 26.8554 21 26.722 21H26.202C25.0687 21 24.302 20.68 23.902 20.04C23.622 20.36 23.2354 20.6 22.742 20.76C22.2487 20.92 21.7154 21 21.142 21C20.4754 21 19.922 20.92 19.482 20.76C19.042 20.5867 18.7154 20.3467 18.502 20.04C18.2487 20.3733 17.9287 20.62 17.542 20.78C17.1687 20.9267 16.6887 21 16.102 21H15.582C15.4487 21 15.382 20.5733 15.382 19.72C15.382 18.8 15.4487 18.34 15.582 18.34H16.102ZM22.642 16.86C22.642 15.74 22.142 15.18 21.142 15.18C20.142 15.18 19.642 15.74 19.642 16.86C19.642 17.34 19.762 17.7133 20.002 17.98C20.2554 18.2333 20.6354 18.36 21.142 18.36C21.6487 18.36 22.022 18.24 22.262 18C22.5154 17.7467 22.642 17.3667 22.642 16.86ZM29.0348 18.34C29.3682 18.34 29.6348 18.2533 29.8348 18.08C30.0482 17.8933 30.1548 17.64 30.1548 17.32V14.12H32.6948V17.24C32.6948 17.9733 33.0682 18.34 33.8148 18.34H34.5748C34.7082 18.34 34.7748 18.7867 34.7748 19.68C34.7748 20.56 34.7082 21 34.5748 21H33.6948C32.5748 21 31.8148 20.68 31.4148 20.04C31.1748 20.3733 30.8548 20.62 30.4548 20.78C30.0682 20.9267 29.5948 21 29.0348 21H26.7148C26.5815 21 26.5148 20.5733 26.5148 19.72C26.5148 18.8 26.5815 18.34 26.7148 18.34H29.0348ZM30.9148 23.08V25.36H25.2748V23.08H30.9148ZM36.1064 18.34C36.5597 18.34 36.8997 18.2333 37.1264 18.02C37.3664 17.8067 37.4864 17.5133 37.4864 17.14V14.12H40.0264V17.14C40.0264 17.94 40.4864 18.34 41.4064 18.34C41.8597 18.34 42.1997 18.2333 42.4264 18.02C42.6664 17.8067 42.7864 17.5133 42.7864 17.14V14.12H45.3264V17.14C45.3264 17.94 45.7531 18.34 46.6064 18.34C47.4597 18.34 47.8864 17.94 47.8864 17.14V14.12H50.4264V17.16C50.4264 18.3733 50.0864 19.32 49.4064 20C48.7397 20.6667 47.8064 21 46.6064 21C45.8997 21 45.3331 20.9133 44.9064 20.74C44.4797 20.5533 44.1597 20.2867 43.9464 19.94C43.6931 20.2867 43.3597 20.5533 42.9464 20.74C42.5464 20.9133 42.0331 21 41.4064 21C40.6731 21 40.0864 20.9133 39.6464 20.74C39.2064 20.5533 38.8797 20.2867 38.6664 19.94C38.1464 20.6467 37.2931 21 36.1064 21H34.5664C34.4331 21 34.3664 20.5733 34.3664 19.72C34.3664 18.8 34.4331 18.34 34.5664 18.34H36.1064ZM45.1464 6.62V8.8H42.7464V6.62H45.1464ZM46.7664 9.76V12.04H41.1264V9.76H46.7664ZM61.8475 18.34C61.9142 18.34 61.9608 18.4267 61.9875 18.6C62.0275 18.7733 62.0475 19.1467 62.0475 19.72C62.0475 20.2533 62.0275 20.6 61.9875 20.76C61.9608 20.92 61.9142 21 61.8475 21H61.1275C60.0075 21 59.1542 20.68 58.5675 20.04C57.9942 19.3867 57.7075 18.46 57.7075 17.26V8.12H60.2675V17.08C60.2675 17.5067 60.3475 17.8267 60.5075 18.04C60.6808 18.24 60.9475 18.34 61.3075 18.34H61.8475ZM67.4716 17.44C67.4716 18.5467 67.1382 19.42 66.4716 20.06C65.8182 20.6867 64.9316 21 63.8116 21H61.8516C61.7182 21 61.6516 20.5733 61.6516 19.72C61.6516 18.8 61.7182 18.34 61.8516 18.34H63.8116C64.1449 18.34 64.4116 18.2533 64.6116 18.08C64.8249 17.8933 64.9316 17.64 64.9316 17.32V14.12H67.4716V17.44ZM63.9716 12.04V9.76H66.6916V12.04H63.9716ZM70.3247 8.12H72.8847V21H70.3247V8.12ZM79.8702 18.34C80.2035 18.34 80.4702 18.2733 80.6702 18.14C80.8702 18.0067 80.9702 17.82 80.9702 17.58C80.9702 17.4067 80.8835 17.0867 80.7102 16.62C80.5502 16.14 80.1568 15.0667 79.5302 13.4L78.8902 11.68L81.2502 10.56L83.5702 17.04C83.7302 17.5067 83.9102 17.84 84.1102 18.04C84.3235 18.24 84.6035 18.34 84.9502 18.34H85.4702C85.6035 18.34 85.6702 18.8 85.6702 19.72C85.6702 20.2667 85.6502 20.62 85.6102 20.78C85.5702 20.9267 85.5235 21 85.4702 21H84.8302C84.2435 21 83.7502 20.92 83.3502 20.76C82.9502 20.5867 82.6235 20.3133 82.3702 19.94C82.1168 20.3133 81.7902 20.5867 81.3902 20.76C81.0035 20.92 80.5235 21 79.9502 21H75.3902L75.1902 18.34H79.8702ZM91.0848 17.44C91.0848 18.5467 90.7515 19.42 90.0848 20.06C89.4315 20.6867 88.5448 21 87.4248 21H85.4648C85.3315 21 85.2648 20.5733 85.2648 19.72C85.2648 18.8 85.3315 18.34 85.4648 18.34H87.4248C87.7582 18.34 88.0248 18.2533 88.2248 18.08C88.4382 17.8933 88.5448 17.64 88.5448 17.32V14.12H91.0848V17.44ZM87.5848 12.04V9.76H90.3048V12.04H87.5848ZM98.078 18.34C98.1446 18.34 98.1913 18.4267 98.218 18.6C98.258 18.7733 98.278 19.1467 98.278 19.72C98.278 20.2533 98.258 20.6 98.218 20.76C98.1913 20.92 98.1446 21 98.078 21H97.358C96.238 21 95.3846 20.68 94.798 20.04C94.2246 19.3867 93.938 18.46 93.938 17.26V8.12H96.498V17.08C96.498 17.5067 96.578 17.8267 96.738 18.04C96.9113 18.24 97.178 18.34 97.538 18.34H98.078ZM98.602 18.34C98.9754 18.34 99.2354 18.2667 99.382 18.12C99.542 17.9733 99.622 17.7333 99.622 17.4V16.84C99.622 15.5467 99.9887 14.5267 100.722 13.78C101.469 13.02 102.475 12.64 103.742 12.64C105.009 12.64 105.975 13.0067 106.642 13.74C107.322 14.46 107.662 15.5 107.662 16.86C107.662 18.1667 107.309 19.1867 106.602 19.92C105.895 20.64 104.909 21 103.642 21C102.975 21 102.422 20.92 101.982 20.76C101.542 20.5867 101.215 20.3467 101.002 20.04C100.749 20.3733 100.429 20.62 100.042 20.78C99.6687 20.9267 99.1887 21 98.602 21H98.082C97.9487 21 97.882 20.5733 97.882 19.72C97.882 18.8 97.9487 18.34 98.082 18.34H98.602ZM105.142 16.86C105.142 15.74 104.642 15.18 103.642 15.18C102.642 15.18 102.142 15.74 102.142 16.86C102.142 17.34 102.262 17.7133 102.502 17.98C102.755 18.2333 103.135 18.36 103.642 18.36C104.149 18.36 104.522 18.24 104.762 18C105.015 17.7467 105.142 17.3667 105.142 16.86Z" fill="#8B24D0"/>
</svg>
