<?xml version="1.0" standalone="no"?>
<!DOCTYPE svg PUBLIC "-//W3C//DTD SVG 20010904//EN"
 "http://www.w3.org/TR/2001/REC-SVG-20010904/DTD/svg10.dtd">
<svg version="1.0" xmlns="http://www.w3.org/2000/svg"
 width="700.000000pt" height="700.000000pt" viewBox="0 0 700.000000 700.000000"
 preserveAspectRatio="xMidYMid meet">
<metadata>
Created by potrace 1.14, written by Peter Selinger 2001-2017
</metadata>
<g transform="translate(0.000000,700.000000) scale(0.100000,-0.100000)"
fill="#000000" stroke="none">
<path d="M0 5094 l0 -1905 26 28 c15 15 66 71 115 123 48 53 107 116 131 142
69 73 261 279 306 328 l42 45 -4 1263 -3 1262 2851 0 2851 0 -1 -641 0 -641
-46 -57 c-26 -31 -57 -68 -70 -81 -13 -14 -75 -86 -138 -160 -63 -74 -127
-148 -141 -165 -48 -55 -113 -131 -158 -185 -25 -29 -50 -58 -55 -64 -13 -13
-111 -127 -147 -170 -13 -16 -28 -34 -34 -40 -5 -6 -37 -43 -70 -81 -33 -39
-64 -75 -70 -81 -5 -6 -30 -35 -55 -64 -25 -29 -200 -234 -389 -454 -189 -221
-365 -425 -390 -455 -25 -30 -60 -70 -77 -90 -26 -29 -368 -429 -448 -521 -88
-104 -142 -166 -146 -170 -3 -3 -41 -48 -85 -100 -44 -52 -90 -106 -102 -120
-12 -14 -30 -35 -40 -47 l-19 -22 -40 36 c-37 34 -237 217 -260 238 -6 6 -48
44 -93 85 -46 41 -95 86 -110 100 -15 14 -66 61 -114 104 -48 44 -103 93 -121
110 -71 67 -220 202 -247 225 -16 13 -29 27 -29 30 0 8 41 54 188 209 70 74
138 146 152 161 29 32 322 343 533 566 184 195 193 207 168 217 -5 2 -82 72
-171 157 -88 85 -182 174 -208 198 l-47 44 -59 -63 c-78 -83 -330 -356 -401
-434 -5 -6 -51 -56 -101 -110 -50 -54 -104 -112 -119 -129 -15 -16 -70 -77
-123 -134 -54 -57 -105 -113 -115 -124 -18 -21 -85 -94 -186 -202 -31 -33 -78
-85 -106 -115 -50 -55 -242 -263 -302 -328 -18 -19 -33 -38 -33 -42 0 -5 46
-48 103 -96 56 -49 104 -91 107 -94 3 -3 39 -34 80 -70 41 -36 77 -67 80 -70
3 -3 39 -34 80 -70 41 -36 77 -67 80 -70 3 -3 39 -34 80 -70 41 -36 77 -67 80
-70 3 -3 39 -34 80 -70 41 -36 77 -67 80 -70 3 -3 37 -32 75 -65 39 -33 77
-67 85 -75 8 -8 47 -42 85 -75 39 -33 72 -62 75 -65 3 -3 39 -34 80 -70 41
-36 80 -69 86 -75 6 -5 39 -35 74 -65 35 -30 68 -60 74 -65 6 -6 45 -40 88
-77 42 -36 91 -79 110 -96 18 -16 84 -75 147 -129 l114 -100 130 146 c71 80
162 182 202 226 87 96 167 187 204 228 14 16 35 40 46 51 11 12 72 80 135 151
63 72 117 132 121 135 3 3 100 111 215 240 203 229 248 279 289 324 11 12 52
57 90 101 39 43 75 83 80 89 6 6 44 49 85 96 41 47 86 97 100 111 14 15 38 42
54 60 24 27 112 127 191 215 6 6 42 46 80 89 39 43 79 89 91 102 12 12 52 57
90 100 203 228 329 369 334 373 3 3 39 43 80 90 69 78 115 129 165 184 11 12
49 55 85 96 36 40 72 81 80 90 28 30 166 185 196 219 16 18 40 46 54 60 14 15
58 63 98 108 l72 81 0 1086 0 1086 -3500 0 -3500 0 0 -1906z"/>
<path d="M2950 5558 c-157 -160 -388 -397 -515 -526 -126 -129 -295 -301 -375
-382 -80 -82 -302 -309 -495 -506 -192 -196 -404 -412 -470 -479 -66 -68 -286
-292 -490 -500 -203 -207 -423 -431 -487 -498 l-118 -120 0 -1274 0 -1273
3500 0 3500 0 0 2127 0 2127 -46 -50 c-25 -27 -78 -83 -118 -125 -67 -71 -235
-250 -360 -384 -31 -33 -80 -85 -109 -117 l-52 -56 -2 -1444 c-1 -793 -2
-1446 -2 -1450 -1 -5 -1276 -8 -2834 -8 l-2834 0 0 787 0 788 53 55 c29 30 71
75 94 100 23 25 108 115 189 200 80 85 182 193 227 240 44 47 112 119 151 160
39 41 90 95 113 120 23 25 74 79 113 120 97 102 347 367 387 410 44 47 371
393 505 535 68 71 299 316 324 344 25 27 258 273 371 392 l65 68 80 -75 c44
-42 150 -143 235 -224 85 -81 191 -181 235 -223 44 -41 137 -131 207 -199
l127 -123 -122 -141 c-168 -195 -208 -241 -257 -299 -24 -27 -66 -77 -95 -110
-50 -58 -331 -385 -425 -494 -25 -30 -45 -56 -45 -60 0 -4 52 -54 115 -111 63
-57 117 -106 120 -109 3 -3 39 -36 80 -72 42 -37 90 -81 109 -98 26 -24 35
-28 44 -18 7 6 104 118 217 247 113 129 217 249 232 265 14 17 36 41 48 55 61
71 127 146 140 160 8 9 55 63 104 120 49 58 94 110 100 115 6 6 36 39 66 75
30 36 60 70 66 75 5 6 39 44 75 85 35 41 78 91 95 110 102 114 214 245 214
251 0 6 -50 56 -211 211 -201 193 -548 527 -644 620 -60 58 -138 133 -171 165
-34 32 -157 150 -274 263 -118 113 -238 229 -269 259 -31 29 -88 84 -126 122
l-70 69 -285 -292z"/>
</g>
</svg>
